<?xml version="1.0" encoding="utf-8"?>
<!-- Generator: Adobe Illustrator 21.0.0, SVG Export Plug-In . SVG Version: 6.00 Build 0)  -->
<svg version="1.1" xmlns="http://www.w3.org/2000/svg" xmlns:xlink="http://www.w3.org/1999/xlink" x="0px" y="0px"
	 viewBox="0 0 120 120" style="enable-background:new 0 0 120 120;" xml:space="preserve">
<style type="text/css">
	.st0{fill:#698DAE;}
	.st1{fill:#FFFFFF;}
</style>
<!-- <g id="图层_1">
	<path class="st0" d="M108,120H12c-6.6,0-12-5.4-12-12V12C0,5.4,5.4,0,12,0h96c6.6,0,12,5.4,12,12v96C120,114.6,114.6,120,108,120z"
		/>
</g> -->
<g id="图层_2">
	<g>
		
			<image style="overflow:visible;opacity:0.9;" width="201" height="147" xlink:href="DCDF624E.png"  transform="matrix(1 0 0 1 -39 -15)">
		</image>
		<g>
			<polygon class="st1" points="47.2,58.8 57.3,76.3 71.2,52.3 89.7,84.3 114.5,84.3 82.9,29.5 66.2,29.2 59.6,40.6 53,29 
				36.2,28.8 4.1,84.3 32.4,84.3 			"/>
		</g>
	</g>
</g>
</svg>
